<svg width="301" height="264" viewBox="0 0 301 264" fill="none" xmlns="http://www.w3.org/2000/svg">
<path d="M123.464 262C107.864 262 97.3256 258.573 85.1546 250.804C70.9488 243.645 63.4 236.51 60.8 228.863C58.2 223.765 58.2 216.118 60.8 208.471C63.4 200.824 71.2 190.627 79 180.431C63.4 195.725 50.4 200.824 40 200.824C29.6 200.824 19.2 195.725 14 182.98C6.2 170.235 1 149.843 1 129.451C1 109.059 6.2 88.6667 14 75.9216C21.8 63.1765 29.6 58.0784 40 58.0784C50.4 58.0784 66 65.7255 79 78.4706C68.6 68.2745 63.4 60.6275 60.8 50.4314C58.2 42.7843 58.2 35.1373 60.8 30.0392C63.4 19.8431 73.8 14.7451 86.8 9.64706C99.8 4.54902 115.4 2 131 2C146.6 2 162.2 4.54902 175.2 9.64706C188.2 14.7451 198.6 22.3922 201.2 30.0392C203.8 35.1373 203.8 42.7843 201.2 50.4314C198.6 58.0784 190.8 68.2745 183 78.4706C198.6 63.1765 211.6 58.0784 222 58.0784C235 58.0784 245.4 65.7255 250.6 81.0196C255.8 93.7647 261 111.608 261 132C261 149.843 258.4 167.686 250.6 182.98C242.8 198.275 232.4 205.922 222 205.922C211.6 205.922 196 198.275 183 185.529C193.4 195.725 198.6 203.373 201.2 213.569C203.8 221.216 203.8 228.863 201.2 233.961C198.6 244.157 188.2 249.255 175.2 254.353C162.2 259.451 146.6 262 131 262H123.464Z" fill="#D9E4D3"/>
<path d="M3.8 10.8H18.472C20.3387 10.8 22.1493 10.968 23.904 11.304C25.696 11.64 27.3013 12.2187 28.72 13.04C30.1387 13.8613 31.2587 15.0187 32.08 16.512C32.9013 17.968 33.312 19.8347 33.312 22.112C33.312 24.352 32.752 26.3307 31.632 28.048C30.5493 29.7653 29.0933 31.1093 27.264 32.08C25.472 33.0133 23.4933 33.48 21.328 33.48C19.3867 33.48 17.7813 33.3307 16.512 33.032C15.28 32.696 14.216 32.3227 13.32 31.912V37.344C13.32 40.0693 13.376 42.2347 13.488 43.84C13.6 45.4453 13.824 46.64 14.16 47.424C14.5333 48.208 15.0747 48.7307 15.784 48.992C16.5307 49.216 17.5387 49.328 18.808 49.328L18.92 50H3.8L3.912 49.328C5.18133 49.328 6.17067 49.216 6.88 48.992C7.62667 48.7307 8.168 48.208 8.504 47.424C8.87733 46.64 9.12 45.4453 9.232 43.84C9.344 42.2347 9.4 40.0693 9.4 37.344V23.456C9.4 20.7307 9.344 18.5653 9.232 16.96C9.12 15.3547 8.87733 14.16 8.504 13.376C8.168 12.592 7.62667 12.088 6.88 11.864C6.17067 11.6027 5.18133 11.472 3.912 11.472L3.8 10.8ZM13.32 12.088V30.512C14.2907 31.0347 15.448 31.4267 16.792 31.688C18.1733 31.9493 19.368 32.08 20.376 32.08C21.944 32.08 23.3627 31.744 24.632 31.072C25.9387 30.3627 26.984 29.28 27.768 27.824C28.552 26.368 28.944 24.464 28.944 22.112C28.944 19.9093 28.5707 18.1547 27.824 16.848C27.1147 15.504 26.1627 14.496 24.968 13.824C23.8107 13.1147 22.5227 12.648 21.104 12.424C19.6853 12.2 18.304 12.088 16.96 12.088H13.32ZM51.9021 22.672C52.7607 22.672 53.5634 22.8773 54.3101 23.288C55.0567 23.6613 55.4301 24.2213 55.4301 24.968C55.4301 25.7147 55.1874 26.2933 54.7021 26.704C54.2167 27.0773 53.7127 27.264 53.1901 27.264C52.6301 27.264 52.1447 27.152 51.7341 26.928C51.3607 26.6667 50.9314 26.424 50.4461 26.2C49.9981 25.9387 49.3447 25.808 48.4861 25.808C47.4781 25.808 46.6007 26.4613 45.8541 27.768C45.1074 29.0373 44.5287 30.6987 44.1181 32.752C43.7447 34.8053 43.5581 36.952 43.5581 39.192C43.5581 41.544 43.5954 43.4107 43.6701 44.792C43.7821 46.1733 43.9874 47.1813 44.2861 47.816C44.5847 48.4507 45.0514 48.8613 45.6861 49.048C46.3207 49.2347 47.1981 49.328 48.3181 49.328L48.4301 50H34.8221L34.9341 49.328C36.0167 49.328 36.8754 49.2347 37.5101 49.048C38.1447 48.8613 38.6114 48.4507 38.9101 47.816C39.2087 47.1813 39.3954 46.1733 39.4701 44.792C39.5821 43.4107 39.6381 41.544 39.6381 39.192V35.944C39.6381 33.2187 39.5821 31.072 39.4701 29.504C39.3954 27.8987 39.1714 26.7227 38.7981 25.976C38.4621 25.2293 37.9207 24.7627 37.1741 24.576C36.4647 24.352 35.4754 24.24 34.2061 24.24L34.0941 23.624C34.0941 23.624 34.5607 23.568 35.4941 23.456C36.4274 23.344 37.6034 23.232 39.0221 23.12C40.4781 23.008 41.9901 22.952 43.5581 22.952V31.184C43.9687 28.5333 44.8834 26.4613 46.3021 24.968C47.7581 23.4373 49.6247 22.672 51.9021 22.672ZM67.5626 22.952C70.2506 22.952 72.5466 23.5867 74.4506 24.856C76.392 26.088 77.8666 27.7493 78.8746 29.84C79.92 31.9307 80.4426 34.2453 80.4426 36.784C80.4426 39.2853 79.9386 41.5813 78.9306 43.672C77.96 45.7627 76.5413 47.4427 74.6746 48.712C72.808 49.944 70.5493 50.56 67.8986 50.56C65.2853 50.56 63.008 49.944 61.0666 48.712C59.1626 47.4427 57.688 45.7627 56.6426 43.672C55.6346 41.5813 55.1306 39.2853 55.1306 36.784C55.1306 34.2453 55.616 31.9307 56.5866 29.84C57.5573 27.7493 58.976 26.088 60.8426 24.856C62.7093 23.5867 64.9493 22.952 67.5626 22.952ZM67.8986 49.44C69.8026 49.44 71.3706 48.88 72.6026 47.76C73.8346 46.6027 74.7306 45.072 75.2906 43.168C75.888 41.2267 76.1866 39.0987 76.1866 36.784C76.1866 34.432 75.8693 32.304 75.2346 30.4C74.6 28.4587 73.648 26.928 72.3786 25.808C71.1093 24.6507 69.5226 24.072 67.6186 24.072C65.752 24.072 64.2026 24.6507 62.9706 25.808C61.7386 26.928 60.824 28.4587 60.2266 30.4C59.6666 32.304 59.3866 34.432 59.3866 36.784C59.3866 39.0987 59.704 41.2267 60.3386 43.168C60.9733 45.072 61.9253 46.6027 63.1946 47.76C64.464 48.88 66.032 49.44 67.8986 49.44ZM91.9513 22.952V32.976C92.1753 31.408 92.6233 29.8587 93.2953 28.328C94.0046 26.76 94.9753 25.472 96.2073 24.464C97.4766 23.456 99.026 22.952 100.855 22.952C103.73 22.952 105.877 23.736 107.295 25.304C108.714 26.8347 109.423 29.0373 109.423 31.912V40.76C109.423 43.2987 109.517 45.184 109.703 46.416C109.89 47.648 110.319 48.4507 110.991 48.824C111.663 49.16 112.727 49.328 114.183 49.328L114.295 50H100.687L100.799 49.328C101.957 49.328 102.853 49.2347 103.487 49.048C104.122 48.8613 104.57 48.4693 104.831 47.872C105.13 47.2747 105.317 46.3787 105.391 45.184C105.466 43.952 105.503 42.3093 105.503 40.256V32.472C105.503 30.0453 105.13 28.1413 104.383 26.76C103.637 25.3787 102.237 24.688 100.183 24.688C98.8766 24.688 97.738 25.08 96.7673 25.864C95.834 26.648 95.05 27.6747 94.4153 28.944C93.818 30.176 93.3326 31.52 92.9593 32.976C92.586 34.432 92.3246 35.8507 92.1753 37.232C92.026 38.576 91.9513 39.752 91.9513 40.76C91.9513 42.7013 91.9886 44.2507 92.0633 45.408C92.138 46.528 92.3246 47.368 92.6233 47.928C92.922 48.488 93.3886 48.8613 94.0233 49.048C94.658 49.2347 95.5353 49.328 96.6553 49.328L96.7673 50H83.1033L83.2153 49.328C84.3726 49.328 85.2686 49.2347 85.9033 49.048C86.5753 48.8613 87.0606 48.488 87.3593 47.928C87.658 47.3307 87.8446 46.4533 87.9193 45.296C87.994 44.1387 88.0313 42.5893 88.0313 40.648V36.168C88.0313 33.4427 87.9753 31.2773 87.8633 29.672C87.7886 28.0667 87.5646 26.872 87.1913 26.088C86.818 25.304 86.258 24.8 85.5113 24.576C84.802 24.3147 83.794 24.184 82.4873 24.184L82.3753 23.568C82.3753 23.568 82.842 23.512 83.7753 23.4C84.746 23.288 85.9593 23.1947 87.4153 23.12C88.8713 23.008 90.3833 22.952 91.9513 22.952ZM123.825 16.624V23.512H130.713V24.744H123.825V46.08C123.825 46.9013 124.011 47.536 124.385 47.984C124.758 48.432 125.243 48.656 125.841 48.656C126.587 48.656 127.334 48.5627 128.081 48.376C128.827 48.152 129.667 47.8533 130.601 47.48L130.713 48.096C129.667 48.768 128.566 49.3467 127.409 49.832C126.251 50.3173 125.038 50.56 123.769 50.56C122.537 50.56 121.585 50.2613 120.913 49.664C120.241 49.0667 119.905 47.9467 119.905 46.304V24.744H116.545V23.512C118.038 23.512 119.177 23.2133 119.961 22.616C120.745 21.9813 121.323 21.1413 121.697 20.096C122.07 19.0507 122.369 17.9307 122.593 16.736L123.825 16.624ZM152.924 31.912V37.568C152.924 40.2187 152.961 42.272 153.036 43.728C153.148 45.184 153.372 46.2107 153.708 46.808C154.044 47.368 154.548 47.648 155.22 47.648C155.705 47.648 156.153 47.5733 156.564 47.424C156.974 47.2373 157.366 47.0507 157.74 46.864L158.02 47.424C158.02 47.424 157.646 47.6667 156.9 48.152C156.153 48.6 155.126 49.0667 153.82 49.552C152.55 50.0373 151.132 50.28 149.564 50.28C149.414 49.5707 149.284 48.5253 149.172 47.144C149.06 45.7627 149.004 44.3067 149.004 42.776C148.593 44.008 148.033 45.2213 147.324 46.416C146.652 47.6107 145.737 48.6 144.58 49.384C143.422 50.168 141.929 50.56 140.1 50.56C137.897 50.56 136.105 49.944 134.724 48.712C133.342 47.48 132.652 45.7627 132.652 43.56C132.652 41.768 133.193 40.2 134.276 38.856C135.358 37.4747 137.094 36.4107 139.484 35.664C141.873 34.88 145.046 34.488 149.004 34.488V32.472C149.004 30.8667 148.854 29.448 148.556 28.216C148.294 26.9467 147.753 25.9573 146.932 25.248C146.148 24.5387 144.99 24.184 143.46 24.184C142.414 24.184 141.593 24.3893 140.996 24.8C140.398 25.1733 139.913 25.64 139.54 26.2C139.204 26.76 138.905 27.3387 138.644 27.936C138.382 28.496 138.065 28.9813 137.692 29.392C137.356 29.7653 136.87 29.952 136.236 29.952C134.966 29.952 134.332 29.3173 134.332 28.048C134.332 26.9653 134.78 26.0507 135.676 25.304C136.572 24.5573 137.729 23.9787 139.148 23.568C140.604 23.1573 142.116 22.952 143.684 22.952C146.334 22.952 148.537 23.68 150.292 25.136C152.046 26.5547 152.924 28.8133 152.924 31.912ZM140.996 48.824C142.452 48.824 143.684 48.3947 144.692 47.536C145.7 46.6773 146.502 45.576 147.1 44.232C147.734 42.888 148.201 41.4693 148.5 39.976C148.798 38.4453 148.966 37.0453 149.004 35.776C146.054 35.8133 143.684 36.2053 141.892 36.952C140.137 37.6987 138.868 38.6693 138.084 39.864C137.3 41.0587 136.908 42.3653 136.908 43.784C136.908 45.1653 137.244 46.36 137.916 47.368C138.588 48.3387 139.614 48.824 140.996 48.824ZM188.142 22.952C190.046 22.952 191.67 23.3627 193.014 24.184C194.358 25.0053 195.422 26.1067 196.206 27.488C197.027 28.832 197.624 30.3253 197.998 31.968C198.371 33.5733 198.558 35.1973 198.558 36.84C198.558 39.416 198.016 41.7493 196.934 43.84C195.851 45.8933 194.358 47.536 192.454 48.768C190.55 49.9627 188.366 50.56 185.901 50.56C184.483 50.56 183.27 50.4293 182.262 50.168C181.254 49.9067 180.339 49.5333 179.518 49.048V55.656C179.518 57.672 179.555 59.2773 179.63 60.472C179.704 61.704 179.891 62.6187 180.19 63.216C180.526 63.8133 181.011 64.2053 181.646 64.392C182.28 64.5787 183.158 64.672 184.278 64.672L184.39 65.344H170.838L170.95 64.672C172.032 64.672 172.891 64.5787 173.526 64.392C174.16 64.2053 174.627 63.8133 174.926 63.216C175.224 62.6187 175.411 61.704 175.486 60.472C175.56 59.2773 175.598 57.672 175.598 55.656V32.024C175.598 30.232 175.56 28.8133 175.486 27.768C175.411 26.7227 175.224 25.9573 174.926 25.472C174.627 24.9493 174.16 24.6133 173.526 24.464C172.891 24.3147 172.032 24.24 170.95 24.24L170.838 23.624C170.838 23.624 171.23 23.568 172.014 23.456C172.835 23.344 173.899 23.232 175.206 23.12C176.512 23.008 177.95 22.952 179.518 22.952V30.288C179.891 29.1307 180.414 27.992 181.086 26.872C181.795 25.752 182.728 24.8187 183.886 24.072C185.043 23.3253 186.462 22.952 188.142 22.952ZM185.174 48.936C186.966 48.936 188.44 48.5813 189.598 47.872C190.792 47.1627 191.726 46.2293 192.398 45.072C193.107 43.8773 193.592 42.5707 193.854 41.152C194.152 39.7333 194.302 38.296 194.302 36.84C194.302 35.6827 194.208 34.4133 194.022 33.032C193.835 31.6133 193.48 30.288 192.958 29.056C192.472 27.7867 191.763 26.7413 190.83 25.92C189.934 25.0987 188.739 24.688 187.246 24.688C186.051 24.688 185.006 25.024 184.11 25.696C183.251 26.3307 182.523 27.1707 181.926 28.216C181.328 29.2613 180.843 30.3627 180.47 31.52C180.134 32.6773 179.891 33.76 179.742 34.768C179.592 35.776 179.518 36.5973 179.518 37.232V45.968C180.04 46.9013 180.824 47.6293 181.87 48.152C182.915 48.6747 184.016 48.936 185.174 48.936ZM221.845 31.912V37.568C221.845 40.2187 221.883 42.272 221.957 43.728C222.069 45.184 222.293 46.2107 222.629 46.808C222.965 47.368 223.469 47.648 224.141 47.648C224.627 47.648 225.075 47.5733 225.485 47.424C225.896 47.2373 226.288 47.0507 226.661 46.864L226.941 47.424C226.941 47.424 226.568 47.6667 225.821 48.152C225.075 48.6 224.048 49.0667 222.741 49.552C221.472 50.0373 220.053 50.28 218.485 50.28C218.336 49.5707 218.205 48.5253 218.093 47.144C217.981 45.7627 217.925 44.3067 217.925 42.776C217.515 44.008 216.955 45.2213 216.245 46.416C215.573 47.6107 214.659 48.6 213.501 49.384C212.344 50.168 210.851 50.56 209.021 50.56C206.819 50.56 205.027 49.944 203.645 48.712C202.264 47.48 201.573 45.7627 201.573 43.56C201.573 41.768 202.115 40.2 203.197 38.856C204.28 37.4747 206.016 36.4107 208.405 35.664C210.795 34.88 213.968 34.488 217.925 34.488V32.472C217.925 30.8667 217.776 29.448 217.477 28.216C217.216 26.9467 216.675 25.9573 215.853 25.248C215.069 24.5387 213.912 24.184 212.381 24.184C211.336 24.184 210.515 24.3893 209.917 24.8C209.32 25.1733 208.835 25.64 208.461 26.2C208.125 26.76 207.827 27.3387 207.565 27.936C207.304 28.496 206.987 28.9813 206.613 29.392C206.277 29.7653 205.792 29.952 205.157 29.952C203.888 29.952 203.253 29.3173 203.253 28.048C203.253 26.9653 203.701 26.0507 204.597 25.304C205.493 24.5573 206.651 23.9787 208.069 23.568C209.525 23.1573 211.037 22.952 212.605 22.952C215.256 22.952 217.459 23.68 219.213 25.136C220.968 26.5547 221.845 28.8133 221.845 31.912ZM209.917 48.824C211.373 48.824 212.605 48.3947 213.613 47.536C214.621 46.6773 215.424 45.576 216.021 44.232C216.656 42.888 217.123 41.4693 217.421 39.976C217.72 38.4453 217.888 37.0453 217.925 35.776C214.976 35.8133 212.605 36.2053 210.813 36.952C209.059 37.6987 207.789 38.6693 207.005 39.864C206.221 41.0587 205.829 42.3653 205.829 43.784C205.829 45.1653 206.165 46.36 206.837 47.368C207.509 48.3387 208.536 48.824 209.917 48.824ZM245.847 22.672C246.706 22.672 247.509 22.8773 248.255 23.288C249.002 23.6613 249.375 24.2213 249.375 24.968C249.375 25.7147 249.133 26.2933 248.647 26.704C248.162 27.0773 247.658 27.264 247.135 27.264C246.575 27.264 246.09 27.152 245.679 26.928C245.306 26.6667 244.877 26.424 244.391 26.2C243.943 25.9387 243.29 25.808 242.431 25.808C241.423 25.808 240.546 26.4613 239.799 27.768C239.053 29.0373 238.474 30.6987 238.063 32.752C237.69 34.8053 237.503 36.952 237.503 39.192C237.503 41.544 237.541 43.4107 237.615 44.792C237.727 46.1733 237.933 47.1813 238.231 47.816C238.53 48.4507 238.997 48.8613 239.631 49.048C240.266 49.2347 241.143 49.328 242.263 49.328L242.375 50H228.767L228.879 49.328C229.962 49.328 230.821 49.2347 231.455 49.048C232.09 48.8613 232.557 48.4507 232.855 47.816C233.154 47.1813 233.341 46.1733 233.415 44.792C233.527 43.4107 233.583 41.544 233.583 39.192V35.944C233.583 33.2187 233.527 31.072 233.415 29.504C233.341 27.8987 233.117 26.7227 232.743 25.976C232.407 25.2293 231.866 24.7627 231.119 24.576C230.41 24.352 229.421 24.24 228.151 24.24L228.039 23.624C228.039 23.624 228.506 23.568 229.439 23.456C230.373 23.344 231.549 23.232 232.967 23.12C234.423 23.008 235.935 22.952 237.503 22.952V31.184C237.914 28.5333 238.829 26.4613 240.247 24.968C241.703 23.4373 243.57 22.672 245.847 22.672ZM270.455 31.912V37.568C270.455 40.2187 270.492 42.272 270.567 43.728C270.679 45.184 270.903 46.2107 271.239 46.808C271.575 47.368 272.079 47.648 272.751 47.648C273.236 47.648 273.684 47.5733 274.095 47.424C274.505 47.2373 274.897 47.0507 275.271 46.864L275.551 47.424C275.551 47.424 275.177 47.6667 274.431 48.152C273.684 48.6 272.657 49.0667 271.351 49.552C270.081 50.0373 268.663 50.28 267.095 50.28C266.945 49.5707 266.815 48.5253 266.703 47.144C266.591 45.7627 266.535 44.3067 266.535 42.776C266.124 44.008 265.564 45.2213 264.855 46.416C264.183 47.6107 263.268 48.6 262.111 49.384C260.953 50.168 259.46 50.56 257.631 50.56C255.428 50.56 253.636 49.944 252.255 48.712C250.873 47.48 250.183 45.7627 250.183 43.56C250.183 41.768 250.724 40.2 251.807 38.856C252.889 37.4747 254.625 36.4107 257.015 35.664C259.404 34.88 262.577 34.488 266.535 34.488V32.472C266.535 30.8667 266.385 29.448 266.087 28.216C265.825 26.9467 265.284 25.9573 264.463 25.248C263.679 24.5387 262.521 24.184 260.991 24.184C259.945 24.184 259.124 24.3893 258.527 24.8C257.929 25.1733 257.444 25.64 257.071 26.2C256.735 26.76 256.436 27.3387 256.175 27.936C255.913 28.496 255.596 28.9813 255.223 29.392C254.887 29.7653 254.401 29.952 253.767 29.952C252.497 29.952 251.863 29.3173 251.863 28.048C251.863 26.9653 252.311 26.0507 253.207 25.304C254.103 24.5573 255.26 23.9787 256.679 23.568C258.135 23.1573 259.647 22.952 261.215 22.952C263.865 22.952 266.068 23.68 267.823 25.136C269.577 26.5547 270.455 28.8133 270.455 31.912ZM258.527 48.824C259.983 48.824 261.215 48.3947 262.223 47.536C263.231 46.6773 264.033 45.576 264.631 44.232C265.265 42.888 265.732 41.4693 266.031 39.976C266.329 38.4453 266.497 37.0453 266.535 35.776C263.585 35.8133 261.215 36.2053 259.423 36.952C257.668 37.6987 256.399 38.6693 255.615 39.864C254.831 41.0587 254.439 42.3653 254.439 43.784C254.439 45.1653 254.775 46.36 255.447 47.368C256.119 48.3387 257.145 48.824 258.527 48.824ZM19.335 92.9287C18.7816 92.9287 18.3421 92.7741 18.0166 92.4648C17.7074 92.1393 17.5527 91.6999 17.5527 91.1465C17.5527 90.6257 17.6911 90.2025 17.9678 89.877C18.2445 89.5514 18.6107 89.3887 19.0664 89.3887C19.2292 89.3887 19.3838 89.4212 19.5303 89.4863C19.6117 89.5189 19.6686 89.5433 19.7012 89.5596C19.7337 89.5596 19.7663 89.5596 19.7988 89.5596C19.9453 89.5596 20.0186 89.4538 20.0186 89.2422C20.0186 89.0306 19.9372 88.8271 19.7744 88.6318C19.6117 88.4202 19.3919 88.2412 19.1152 88.0947C18.8385 87.932 18.513 87.8099 18.1387 87.7285C17.7806 87.6309 17.4062 87.582 17.0156 87.582C16.0065 87.582 14.9811 87.875 13.9395 88.4609C12.9141 89.0469 11.9131 89.8525 10.9365 90.8779C9.97624 91.887 9.06478 93.0752 8.20215 94.4424C7.35579 95.8096 6.61523 97.2744 5.98047 98.8369C5.3457 100.383 4.84115 101.986 4.4668 103.646C4.10872 105.307 3.92969 106.934 3.92969 108.529C3.92969 109.734 4.03548 110.759 4.24707 111.605C4.47493 112.452 4.81673 113.144 5.27246 113.681C5.74447 114.218 6.34668 114.617 7.0791 114.877C7.81152 115.121 8.69043 115.243 9.71582 115.243C11.2295 115.243 12.7025 114.991 14.1348 114.486C15.5833 113.982 16.9749 113.249 18.3096 112.289C19.6605 111.312 20.9382 110.116 22.1426 108.7C23.3633 107.268 24.4945 105.624 25.5361 103.769L26.8057 101.522L27.4648 101.986L26.1953 104.232C23.8678 108.367 21.2962 111.443 18.4805 113.461C15.6647 115.463 12.5885 116.464 9.25195 116.464C6.22461 116.464 3.94596 115.683 2.41602 114.12C0.902344 112.558 0.145508 110.287 0.145508 107.309C0.145508 106.43 0.210612 105.526 0.34082 104.599C0.471029 103.671 0.658203 102.735 0.902344 101.791C1.48828 99.61 2.31022 97.5918 3.36816 95.7363C4.44238 93.8809 5.66309 92.2777 7.03027 90.9268C8.41374 89.5758 9.90299 88.5179 11.498 87.7529C13.1094 86.988 14.7451 86.6055 16.4053 86.6055C18.1468 86.6055 19.4733 87.0612 20.3848 87.9727C20.7591 88.347 21.0439 88.762 21.2393 89.2178C21.4346 89.6572 21.5322 90.113 21.5322 90.585C21.5322 91.3011 21.3288 91.8708 20.9219 92.2939C20.5312 92.7171 20.0023 92.9287 19.335 92.9287ZM30.0791 87.0693H33.6924L27.4668 104.159C27.2389 104.794 27.0111 105.445 26.7832 106.112C26.5553 106.763 26.3519 107.414 26.1729 108.065C26.0101 108.7 25.8717 109.319 25.7578 109.921C25.6602 110.507 25.6113 111.052 25.6113 111.557C25.6113 112.68 25.9124 113.575 26.5146 114.242C27.1169 114.91 28.0365 115.243 29.2734 115.243C30.3639 115.243 31.4219 115.007 32.4473 114.535C33.4727 114.063 34.4818 113.355 35.4746 112.411C36.4837 111.451 37.4928 110.255 38.502 108.822C39.5111 107.39 40.5527 105.705 41.627 103.769L42.8232 101.62L48.1455 87.0693H51.7588L45.5332 104.159C45.3053 104.794 45.0775 105.445 44.8496 106.112C44.6217 106.763 44.4183 107.414 44.2393 108.065C44.0765 108.7 43.9382 109.319 43.8242 109.921C43.7266 110.507 43.6777 111.052 43.6777 111.557C43.6777 112.68 43.9707 113.575 44.5566 114.242C45.1589 114.91 46.0866 115.243 47.3398 115.243C48.4303 115.243 49.4801 115.007 50.4893 114.535C51.5146 114.063 52.5238 113.355 53.5166 112.411C54.5257 111.451 55.5348 110.255 56.5439 108.822C57.5531 107.374 58.6029 105.689 59.6934 103.769L60.9629 101.522L61.5977 101.986L60.3525 104.232C59.1807 106.348 58.0495 108.179 56.959 109.726C55.8848 111.256 54.8024 112.525 53.7119 113.534C52.6377 114.527 51.5309 115.268 50.3916 115.756C49.2686 116.228 48.0723 116.464 46.8027 116.464C45.8099 116.464 44.931 116.309 44.166 116C43.4173 115.707 42.7826 115.284 42.2617 114.73C41.7572 114.177 41.3747 113.51 41.1143 112.729C40.8538 111.947 40.7236 111.076 40.7236 110.116C40.7236 109.481 40.7806 108.798 40.8945 108.065C41.0085 107.317 41.1794 106.552 41.4072 105.771C40.3167 107.61 39.2669 109.205 38.2578 110.556C37.2487 111.89 36.2396 112.997 35.2305 113.876C34.2214 114.755 33.1797 115.406 32.1055 115.829C31.0475 116.252 29.9245 116.464 28.7363 116.464C27.7435 116.464 26.8646 116.309 26.0996 116C25.3509 115.707 24.7243 115.284 24.2197 114.73C23.6989 114.177 23.3083 113.51 23.0479 112.729C22.7874 111.947 22.6572 111.076 22.6572 110.116C22.6572 109.27 22.763 108.342 22.9746 107.333C23.1699 106.324 23.4629 105.266 23.8535 104.159L30.0791 87.0693ZM64.2363 87.0693H67.8496L61.624 104.159C61.3962 104.794 61.1683 105.445 60.9404 106.112C60.7126 106.763 60.5091 107.414 60.3301 108.065C60.1673 108.7 60.029 109.319 59.915 109.921C59.8174 110.507 59.7686 111.052 59.7686 111.557C59.7686 112.68 60.0615 113.575 60.6475 114.242C61.2497 114.91 62.1774 115.243 63.4307 115.243C64.5212 115.243 65.571 115.007 66.5801 114.535C67.6055 114.063 68.6146 113.355 69.6074 112.411C70.6165 111.451 71.6257 110.255 72.6348 108.822C73.6439 107.374 74.6937 105.689 75.7842 103.769L77.0537 101.522L77.7129 101.986L76.4434 104.232C75.2552 106.332 74.1159 108.155 73.0254 109.701C71.9512 111.231 70.8688 112.501 69.7783 113.51C68.7041 114.503 67.6055 115.243 66.4824 115.731C65.3594 116.22 64.1631 116.464 62.8936 116.464C61.9007 116.464 61.0218 116.309 60.2568 116C59.5081 115.707 58.8815 115.284 58.377 114.73C57.8561 114.177 57.4655 113.51 57.2051 112.729C56.9447 111.947 56.8145 111.076 56.8145 110.116C56.8145 109.27 56.9202 108.342 57.1318 107.333C57.3271 106.324 57.6201 105.266 58.0107 104.159L64.2363 87.0693ZM66.1895 80.6729C66.1895 80.1032 66.3848 79.6149 66.7754 79.208C67.1823 78.8011 67.6706 78.5977 68.2402 78.5977C68.8099 78.5977 69.29 78.8011 69.6807 79.208C70.0876 79.5986 70.291 80.0788 70.291 80.6484C70.291 80.9251 70.234 81.1937 70.1201 81.4541C70.0225 81.6982 69.876 81.9098 69.6807 82.0889C69.5016 82.2679 69.2819 82.4144 69.0215 82.5283C68.7773 82.626 68.5088 82.6748 68.2158 82.6748C67.6462 82.6748 67.166 82.4876 66.7754 82.1133C66.3848 81.7227 66.1895 81.2425 66.1895 80.6729ZM74.9805 101.742C75.5664 99.9844 76.2663 98.3893 77.0801 96.957C77.8939 95.5085 78.7728 94.2227 79.7168 93.0996C80.6771 91.9766 81.6781 91.0081 82.7197 90.1943C83.7777 89.3805 84.8275 88.7132 85.8691 88.1924C86.9271 87.6553 87.9606 87.2565 88.9697 86.9961C89.9951 86.7357 90.9554 86.6055 91.8506 86.6055C92.7783 86.6055 93.5514 86.752 94.1699 87.0449C94.7884 87.3216 95.2848 87.7204 95.6592 88.2412C96.0498 88.7458 96.3265 89.3643 96.4893 90.0967C96.652 90.8128 96.7334 91.6104 96.7334 92.4893L103.374 74.2031H106.987L96.0986 104.159C95.8708 104.794 95.6429 105.445 95.415 106.112C95.1872 106.78 94.9837 107.431 94.8047 108.065C94.6419 108.7 94.5036 109.319 94.3896 109.921C94.292 110.507 94.2432 111.052 94.2432 111.557C94.2432 112.68 94.5361 113.575 95.1221 114.242C95.7243 114.91 96.652 115.243 97.9053 115.243C98.9958 115.243 100.054 115.015 101.079 114.56C102.104 114.088 103.114 113.38 104.106 112.436C105.116 111.475 106.125 110.279 107.134 108.847C108.143 107.398 109.185 105.705 110.259 103.769L111.504 101.522L112.163 101.986L110.894 104.232C109.705 106.332 108.566 108.155 107.476 109.701C106.401 111.231 105.327 112.501 104.253 113.51C103.179 114.503 102.08 115.243 100.957 115.731C99.834 116.22 98.6377 116.464 97.3682 116.464C96.3753 116.464 95.4964 116.309 94.7314 116C93.9827 115.707 93.348 115.284 92.8271 114.73C92.3226 114.177 91.9401 113.51 91.6797 112.729C91.4193 111.947 91.2891 111.076 91.2891 110.116C91.2891 109.481 91.346 108.798 91.46 108.065C91.5739 107.317 91.7448 106.544 91.9727 105.746C89.8405 109.327 87.7327 112.012 85.6494 113.803C83.5661 115.577 81.4502 116.464 79.3018 116.464C78.2926 116.464 77.43 116.285 76.7139 115.927C76.014 115.552 75.4362 115.04 74.9805 114.389C74.5247 113.721 74.1911 112.948 73.9795 112.069C73.7679 111.174 73.6621 110.198 73.6621 109.14C73.6621 108 73.776 106.804 74.0039 105.551C74.2318 104.281 74.5573 103.012 74.9805 101.742ZM80.1807 115.243C81.0596 115.243 81.9548 115.015 82.8662 114.56C83.7777 114.088 84.681 113.453 85.5762 112.655C86.4876 111.841 87.3665 110.897 88.2129 109.823C89.0592 108.733 89.8568 107.577 90.6055 106.356C91.3704 105.119 92.0703 103.85 92.7051 102.548C93.3398 101.246 93.8851 99.9681 94.3408 98.7148C94.8128 97.4453 95.1709 96.2409 95.415 95.1016C95.6755 93.946 95.8057 92.9124 95.8057 92.001C95.8057 91.1709 95.6999 90.4792 95.4883 89.9258C95.293 89.3561 95.0244 88.9004 94.6826 88.5586C94.3571 88.2005 93.9746 87.9482 93.5352 87.8018C93.112 87.6553 92.6725 87.582 92.2168 87.582C91.3053 87.582 90.2881 87.8669 89.165 88.4365C88.0583 88.9899 86.9271 89.8444 85.7715 91C84.6159 92.1393 83.4766 93.5879 82.3535 95.3457C81.2467 97.0872 80.2295 99.138 79.3018 101.498C78.5368 103.467 77.959 105.29 77.5684 106.967C77.194 108.643 77.0068 110.043 77.0068 111.166C77.0068 112.436 77.2591 113.437 77.7637 114.169C78.2845 114.885 79.0902 115.243 80.1807 115.243ZM109.406 101.742C109.992 99.9844 110.692 98.3893 111.506 96.957C112.32 95.5085 113.199 94.2227 114.143 93.0996C115.103 91.9766 116.104 91.0081 117.146 90.1943C118.203 89.3805 119.253 88.7132 120.295 88.1924C121.353 87.6553 122.386 87.2565 123.396 86.9961C124.421 86.7357 125.381 86.6055 126.276 86.6055C127.204 86.6055 127.977 86.752 128.596 87.0449C129.214 87.3216 129.711 87.7204 130.085 88.2412C130.476 88.7458 130.752 89.3643 130.915 90.0967C131.078 90.8128 131.159 91.6104 131.159 92.4893L133.137 87.0693H136.75L130.524 104.159C130.297 104.794 130.069 105.445 129.841 106.112C129.613 106.763 129.41 107.414 129.23 108.065C129.068 108.7 128.929 109.319 128.815 109.921C128.718 110.507 128.669 111.052 128.669 111.557C128.669 112.68 128.962 113.575 129.548 114.242C130.15 114.91 131.078 115.243 132.331 115.243C133.422 115.243 134.479 115.015 135.505 114.56C136.53 114.088 137.539 113.38 138.532 112.436C139.541 111.475 140.55 110.279 141.56 108.847C142.569 107.398 143.61 105.705 144.685 103.769L145.93 101.522L146.589 101.986L145.319 104.232C144.131 106.348 142.992 108.179 141.901 109.726C140.827 111.256 139.753 112.525 138.679 113.534C137.604 114.527 136.506 115.268 135.383 115.756C134.26 116.228 133.063 116.464 131.794 116.464C130.801 116.464 129.922 116.309 129.157 116C128.409 115.707 127.774 115.284 127.253 114.73C126.748 114.177 126.366 113.51 126.105 112.729C125.845 111.947 125.715 111.076 125.715 110.116C125.715 109.481 125.772 108.798 125.886 108.065C126 107.317 126.171 106.544 126.398 105.746C124.266 109.327 122.159 112.012 120.075 113.803C117.992 115.577 115.876 116.464 113.728 116.464C112.718 116.464 111.856 116.285 111.14 115.927C110.44 115.552 109.862 115.04 109.406 114.389C108.951 113.721 108.617 112.948 108.405 112.069C108.194 111.174 108.088 110.198 108.088 109.14C108.088 108 108.202 106.804 108.43 105.551C108.658 104.281 108.983 103.012 109.406 101.742ZM114.606 115.243C115.485 115.243 116.381 115.015 117.292 114.56C118.203 114.088 119.107 113.453 120.002 112.655C120.913 111.841 121.792 110.897 122.639 109.823C123.485 108.733 124.283 107.577 125.031 106.356C125.796 105.119 126.496 103.85 127.131 102.548C127.766 101.246 128.311 99.9681 128.767 98.7148C129.239 97.4453 129.597 96.2409 129.841 95.1016C130.101 93.946 130.231 92.9124 130.231 92.001C130.231 91.1709 130.126 90.4792 129.914 89.9258C129.719 89.3561 129.45 88.9004 129.108 88.5586C128.783 88.2005 128.4 87.9482 127.961 87.8018C127.538 87.6553 127.098 87.582 126.643 87.582C125.731 87.582 124.714 87.8669 123.591 88.4365C122.484 88.9899 121.353 89.8444 120.197 91C119.042 92.1393 117.902 93.5879 116.779 95.3457C115.673 97.0872 114.655 99.138 113.728 101.498C112.963 103.467 112.385 105.29 111.994 106.967C111.62 108.643 111.433 110.043 111.433 111.166C111.433 112.436 111.685 113.437 112.189 114.169C112.71 114.885 113.516 115.243 114.606 115.243ZM162.167 88.8027C162.167 88.5423 161.996 88.2819 161.654 88.0215C161.329 87.7448 160.849 87.6064 160.214 87.6064C159.563 87.6064 158.855 87.8099 158.09 88.2168C157.325 88.6074 156.454 89.3073 155.478 90.3164C154.501 91.3255 153.402 92.7008 152.182 94.4424C150.977 96.1839 149.61 98.4056 148.08 101.107L146.859 103.256L142.245 116H138.607L149.154 87.0693H152.768L148.495 98.7881C149.83 96.4932 151.05 94.5726 152.157 93.0264C153.264 91.4639 154.289 90.2106 155.233 89.2666C156.177 88.3063 157.064 87.6227 157.895 87.2158C158.725 86.8089 159.538 86.6055 160.336 86.6055C161.41 86.6055 162.248 86.9229 162.851 87.5576C163.469 88.1924 163.778 89.0225 163.778 90.0479C163.778 90.471 163.721 90.8779 163.607 91.2686C163.51 91.6429 163.355 91.9684 163.144 92.2451C162.948 92.5218 162.704 92.7415 162.411 92.9043C162.118 93.0671 161.793 93.1484 161.435 93.1484C161.174 93.1484 160.914 93.1077 160.653 93.0264C160.409 92.945 160.189 92.8229 159.994 92.6602C159.799 92.4811 159.636 92.2695 159.506 92.0254C159.392 91.7812 159.335 91.4964 159.335 91.1709C159.335 90.9105 159.376 90.6501 159.457 90.3896C159.555 90.113 159.685 89.877 159.848 89.6816C160.01 89.4701 160.206 89.2992 160.434 89.1689C160.661 89.0387 160.914 88.9736 161.19 88.9736C161.369 88.9736 161.54 88.9899 161.703 89.0225C161.736 89.055 161.776 89.0876 161.825 89.1201C161.89 89.1364 161.939 89.1445 161.972 89.1445C162.102 89.1445 162.167 89.0306 162.167 88.8027ZM197.852 109.784C197.516 110.941 196.974 112.043 196.228 113.088C195.518 114.096 194.585 114.936 193.428 115.608C192.27 116.243 190.852 116.56 189.172 116.56C187.268 116.56 185.644 116.149 184.3 115.328C182.993 114.507 181.948 113.443 181.164 112.136C180.38 110.792 179.801 109.336 179.428 107.768C179.092 106.2 178.924 104.669 178.924 103.176C178.924 100.563 179.484 98.192 180.604 96.064C181.724 93.8987 183.329 92.1813 185.42 90.912C187.51 89.6053 190.012 88.952 192.924 88.952C193.969 88.952 194.902 89.0267 195.724 89.176C196.582 89.288 197.348 89.4373 198.02 89.624V84.304C198.02 82.4 197.982 80.9067 197.908 79.824C197.833 78.704 197.646 77.8827 197.348 77.36C197.049 76.8373 196.582 76.5013 195.948 76.352C195.313 76.2027 194.436 76.128 193.316 76.128L193.204 75.512C193.204 75.512 193.596 75.456 194.38 75.344C195.201 75.232 196.265 75.12 197.572 75.008C198.916 74.896 200.372 74.84 201.94 74.84V103.568C201.94 106.219 201.977 108.272 202.052 109.728C202.164 111.184 202.388 112.211 202.724 112.808C203.06 113.368 203.564 113.648 204.236 113.648C204.721 113.648 205.169 113.573 205.58 113.424C205.99 113.237 206.382 113.051 206.756 112.864L207.036 113.424C207.036 113.424 206.662 113.667 205.916 114.152C205.169 114.6 204.142 115.067 202.836 115.552C201.566 116.037 200.148 116.28 198.58 116.28C198.43 115.571 198.262 114.693 198.076 113.648C197.926 112.603 197.852 111.315 197.852 109.784ZM190.012 114.824C191.542 114.824 192.812 114.357 193.82 113.424C194.865 112.491 195.686 111.315 196.284 109.896C196.881 108.477 197.31 106.984 197.572 105.416C197.87 103.848 198.02 102.429 198.02 101.16V92.592C196.414 91.3227 194.566 90.688 192.476 90.688C190.684 90.688 189.172 91.0987 187.94 91.92C186.745 92.7413 185.793 93.8053 185.084 95.112C184.412 96.3813 183.926 97.744 183.628 99.2C183.329 100.619 183.18 101.944 183.18 103.176C183.18 104.333 183.273 105.603 183.46 106.984C183.684 108.328 184.038 109.597 184.524 110.792C185.009 111.949 185.7 112.92 186.596 113.704C187.492 114.451 188.63 114.824 190.012 114.824ZM229.201 97.912V103.568C229.201 106.219 229.238 108.272 229.313 109.728C229.425 111.184 229.649 112.211 229.985 112.808C230.321 113.368 230.825 113.648 231.497 113.648C231.982 113.648 232.43 113.573 232.841 113.424C233.252 113.237 233.644 113.051 234.017 112.864L234.297 113.424C234.297 113.424 233.924 113.667 233.177 114.152C232.43 114.6 231.404 115.067 230.097 115.552C228.828 116.037 227.409 116.28 225.841 116.28C225.692 115.571 225.561 114.525 225.449 113.144C225.337 111.763 225.281 110.307 225.281 108.776C224.87 110.008 224.31 111.221 223.601 112.416C222.929 113.611 222.014 114.6 220.857 115.384C219.7 116.168 218.206 116.56 216.377 116.56C214.174 116.56 212.382 115.944 211.001 114.712C209.62 113.48 208.929 111.763 208.929 109.56C208.929 107.768 209.47 106.2 210.553 104.856C211.636 103.475 213.372 102.411 215.761 101.664C218.15 100.88 221.324 100.488 225.281 100.488V98.472C225.281 96.8667 225.132 95.448 224.833 94.216C224.572 92.9467 224.03 91.9573 223.209 91.248C222.425 90.5387 221.268 90.184 219.737 90.184C218.692 90.184 217.87 90.3893 217.273 90.8C216.676 91.1733 216.19 91.64 215.817 92.2C215.481 92.76 215.182 93.3387 214.921 93.936C214.66 94.496 214.342 94.9813 213.969 95.392C213.633 95.7653 213.148 95.952 212.513 95.952C211.244 95.952 210.609 95.3173 210.609 94.048C210.609 92.9653 211.057 92.0507 211.953 91.304C212.849 90.5573 214.006 89.9787 215.425 89.568C216.881 89.1573 218.393 88.952 219.961 88.952C222.612 88.952 224.814 89.68 226.569 91.136C228.324 92.5547 229.201 94.8133 229.201 97.912ZM217.273 114.824C218.729 114.824 219.961 114.395 220.969 113.536C221.977 112.677 222.78 111.576 223.377 110.232C224.012 108.888 224.478 107.469 224.777 105.976C225.076 104.445 225.244 103.045 225.281 101.776C222.332 101.813 219.961 102.205 218.169 102.952C216.414 103.699 215.145 104.669 214.361 105.864C213.577 107.059 213.185 108.365 213.185 109.784C213.185 111.165 213.521 112.36 214.193 113.368C214.865 114.339 215.892 114.824 217.273 114.824ZM11.64 180.936C13.4693 180.936 14.944 180.525 16.064 179.704C17.184 178.883 17.744 177.744 17.744 176.288C17.744 175.056 17.408 174.067 16.736 173.32C16.064 172.573 15.2053 171.939 14.16 171.416C13.1147 170.893 11.9947 170.389 10.8 169.904C9.64267 169.419 8.54133 168.877 7.496 168.28C6.45067 167.645 5.592 166.843 4.92 165.872C4.248 164.864 3.912 163.595 3.912 162.064C3.912 160.533 4.32267 159.245 5.144 158.2C6.00267 157.117 7.08533 156.315 8.392 155.792C9.736 155.232 11.1173 154.952 12.536 154.952C13.88 154.952 15.28 155.101 16.736 155.4C18.2293 155.699 19.368 156.072 20.152 156.52C20.152 157.715 20.0773 158.965 19.928 160.272C19.7787 161.579 19.6293 162.717 19.48 163.688L18.808 163.52C18.808 161.765 18.528 160.384 17.968 159.376C17.408 158.331 16.6613 157.584 15.728 157.136C14.832 156.688 13.8613 156.464 12.816 156.464C11.5093 156.464 10.352 156.856 9.344 157.64C8.336 158.424 7.832 159.637 7.832 161.28C7.832 162.4 8.168 163.315 8.84 164.024C9.512 164.733 10.3707 165.349 11.416 165.872C12.4613 166.357 13.5627 166.843 14.72 167.328C15.9147 167.813 17.0347 168.373 18.08 169.008C19.1253 169.643 19.984 170.445 20.656 171.416C21.328 172.349 21.664 173.563 21.664 175.056C21.664 176.736 21.216 178.136 20.32 179.256C19.424 180.339 18.2293 181.16 16.736 181.72C15.28 182.28 13.712 182.56 12.032 182.56C10.6507 182.56 9.19467 182.373 7.664 182C6.17067 181.589 4.88267 180.973 3.8 180.152C3.8 178.957 3.856 177.8 3.968 176.68C4.08 175.523 4.21067 174.477 4.36 173.544L5.032 173.656C5.032 175.411 5.368 176.829 6.04 177.912C6.712 178.957 7.552 179.723 8.56 180.208C9.568 180.693 10.5947 180.936 11.64 180.936ZM46.2714 167.16C46.2714 164.808 46.1968 162.904 46.0474 161.448C45.9354 159.992 45.6928 158.891 45.3194 158.144C44.9834 157.36 44.4421 156.837 43.6954 156.576C42.9488 156.315 41.9594 156.184 40.7274 156.184L40.6154 155.568C40.6154 155.568 41.0821 155.512 42.0154 155.4C42.9861 155.288 44.1994 155.195 45.6554 155.12C47.1114 155.008 48.6234 154.952 50.1914 154.952V169.568C50.1914 172.219 50.2288 174.272 50.3034 175.728C50.4154 177.184 50.6394 178.211 50.9754 178.808C51.3114 179.368 51.8154 179.648 52.4874 179.648C52.9728 179.648 53.4208 179.573 53.8314 179.424C54.2421 179.237 54.6341 179.051 55.0074 178.864L55.2874 179.424C55.2874 179.424 54.8954 179.667 54.1114 180.152C53.3648 180.6 52.3568 181.067 51.0874 181.552C49.8181 182.037 48.3994 182.28 46.8314 182.28C46.6821 181.309 46.5514 180.283 46.4394 179.2C46.3274 178.08 46.2714 176.605 46.2714 174.776C45.8981 175.971 45.3568 177.165 44.6474 178.36C43.9754 179.555 43.0421 180.563 41.8474 181.384C40.6901 182.168 39.1968 182.56 37.3674 182.56C34.4928 182.56 32.3461 181.795 30.9274 180.264C29.5088 178.696 28.7994 176.475 28.7994 173.6V168.168C28.7994 165.443 28.7434 163.277 28.6314 161.672C28.5568 160.067 28.3328 158.872 27.9594 158.088C27.5861 157.304 27.0261 156.8 26.2794 156.576C25.5701 156.315 24.5621 156.184 23.2554 156.184L23.1434 155.568C23.1434 155.568 23.6101 155.512 24.5434 155.4C25.5141 155.288 26.7274 155.195 28.1834 155.12C29.6394 155.008 31.1514 154.952 32.7194 154.952V173.04C32.7194 175.429 33.0928 177.333 33.8394 178.752C34.5861 180.133 35.9861 180.824 38.0394 180.824C39.6074 180.824 40.9141 180.357 41.9594 179.424C43.0048 178.491 43.8448 177.315 44.4794 175.896C45.1141 174.477 45.5621 172.984 45.8234 171.416C46.1221 169.848 46.2714 168.429 46.2714 167.16ZM77.7673 163.912V169.568C77.7673 172.219 77.8046 174.272 77.8793 175.728C77.9913 177.184 78.2153 178.211 78.5513 178.808C78.8873 179.368 79.3913 179.648 80.0633 179.648C80.5486 179.648 80.9966 179.573 81.4073 179.424C81.818 179.237 82.21 179.051 82.5833 178.864L82.8633 179.424C82.8633 179.424 82.49 179.667 81.7433 180.152C80.9966 180.6 79.97 181.067 78.6633 181.552C77.394 182.037 75.9753 182.28 74.4073 182.28C74.258 181.571 74.1273 180.525 74.0153 179.144C73.9033 177.763 73.8473 176.307 73.8473 174.776C73.4366 176.008 72.8766 177.221 72.1673 178.416C71.4953 179.611 70.5806 180.6 69.4233 181.384C68.266 182.168 66.7726 182.56 64.9433 182.56C62.7406 182.56 60.9486 181.944 59.5673 180.712C58.186 179.48 57.4953 177.763 57.4953 175.56C57.4953 173.768 58.0366 172.2 59.1193 170.856C60.202 169.475 61.938 168.411 64.3273 167.664C66.7166 166.88 69.89 166.488 73.8473 166.488V164.472C73.8473 162.867 73.698 161.448 73.3993 160.216C73.138 158.947 72.5966 157.957 71.7753 157.248C70.9913 156.539 69.834 156.184 68.3033 156.184C67.258 156.184 66.4366 156.389 65.8393 156.8C65.242 157.173 64.7566 157.64 64.3833 158.2C64.0473 158.76 63.7486 159.339 63.4873 159.936C63.226 160.496 62.9086 160.981 62.5353 161.392C62.1993 161.765 61.714 161.952 61.0793 161.952C59.81 161.952 59.1753 161.317 59.1753 160.048C59.1753 158.965 59.6233 158.051 60.5193 157.304C61.4153 156.557 62.5726 155.979 63.9913 155.568C65.4473 155.157 66.9593 154.952 68.5273 154.952C71.178 154.952 73.3806 155.68 75.1353 157.136C76.89 158.555 77.7673 160.813 77.7673 163.912ZM65.8393 180.824C67.2953 180.824 68.5273 180.395 69.5353 179.536C70.5433 178.677 71.346 177.576 71.9433 176.232C72.578 174.888 73.0446 173.469 73.3433 171.976C73.642 170.445 73.81 169.045 73.8473 167.776C70.898 167.813 68.5273 168.205 66.7353 168.952C64.9806 169.699 63.7113 170.669 62.9273 171.864C62.1433 173.059 61.7513 174.365 61.7513 175.784C61.7513 177.165 62.0873 178.36 62.7593 179.368C63.4313 180.339 64.458 180.824 65.8393 180.824ZM104.921 180.936C106.751 180.936 108.225 180.525 109.345 179.704C110.465 178.883 111.025 177.744 111.025 176.288C111.025 175.056 110.689 174.067 110.017 173.32C109.345 172.573 108.487 171.939 107.441 171.416C106.396 170.893 105.276 170.389 104.081 169.904C102.924 169.419 101.823 168.877 100.777 168.28C99.7319 167.645 98.8733 166.843 98.2013 165.872C97.5293 164.864 97.1933 163.595 97.1933 162.064C97.1933 160.533 97.6039 159.245 98.4253 158.2C99.2839 157.117 100.367 156.315 101.673 155.792C103.017 155.232 104.399 154.952 105.817 154.952C107.161 154.952 108.561 155.101 110.017 155.4C111.511 155.699 112.649 156.072 113.433 156.52C113.433 157.715 113.359 158.965 113.209 160.272C113.06 161.579 112.911 162.717 112.761 163.688L112.089 163.52C112.089 161.765 111.809 160.384 111.249 159.376C110.689 158.331 109.943 157.584 109.009 157.136C108.113 156.688 107.143 156.464 106.097 156.464C104.791 156.464 103.633 156.856 102.625 157.64C101.617 158.424 101.113 159.637 101.113 161.28C101.113 162.4 101.449 163.315 102.121 164.024C102.793 164.733 103.652 165.349 104.697 165.872C105.743 166.357 106.844 166.843 108.001 167.328C109.196 167.813 110.316 168.373 111.361 169.008C112.407 169.643 113.265 170.445 113.937 171.416C114.609 172.349 114.945 173.563 114.945 175.056C114.945 176.736 114.497 178.136 113.601 179.256C112.705 180.339 111.511 181.16 110.017 181.72C108.561 182.28 106.993 182.56 105.313 182.56C103.932 182.56 102.476 182.373 100.945 182C99.4519 181.589 98.1639 180.973 97.0813 180.152C97.0813 178.957 97.1373 177.8 97.2493 176.68C97.3613 175.523 97.4919 174.477 97.6413 173.544L98.3133 173.656C98.3133 175.411 98.6493 176.829 99.3213 177.912C99.9933 178.957 100.833 179.723 101.841 180.208C102.849 180.693 103.876 180.936 104.921 180.936ZM138.377 163.912V169.568C138.377 172.219 138.414 174.272 138.489 175.728C138.601 177.184 138.825 178.211 139.161 178.808C139.497 179.368 140.001 179.648 140.673 179.648C141.158 179.648 141.606 179.573 142.017 179.424C142.427 179.237 142.819 179.051 143.193 178.864L143.473 179.424C143.473 179.424 143.099 179.667 142.353 180.152C141.606 180.6 140.579 181.067 139.273 181.552C138.003 182.037 136.585 182.28 135.017 182.28C134.867 181.571 134.737 180.525 134.625 179.144C134.513 177.763 134.457 176.307 134.457 174.776C134.046 176.008 133.486 177.221 132.777 178.416C132.105 179.611 131.19 180.6 130.033 181.384C128.875 182.168 127.382 182.56 125.553 182.56C123.35 182.56 121.558 181.944 120.177 180.712C118.795 179.48 118.105 177.763 118.105 175.56C118.105 173.768 118.646 172.2 119.729 170.856C120.811 169.475 122.547 168.411 124.937 167.664C127.326 166.88 130.499 166.488 134.457 166.488V164.472C134.457 162.867 134.307 161.448 134.009 160.216C133.747 158.947 133.206 157.957 132.385 157.248C131.601 156.539 130.443 156.184 128.913 156.184C127.867 156.184 127.046 156.389 126.449 156.8C125.851 157.173 125.366 157.64 124.993 158.2C124.657 158.76 124.358 159.339 124.097 159.936C123.835 160.496 123.518 160.981 123.145 161.392C122.809 161.765 122.323 161.952 121.689 161.952C120.419 161.952 119.785 161.317 119.785 160.048C119.785 158.965 120.233 158.051 121.129 157.304C122.025 156.557 123.182 155.979 124.601 155.568C126.057 155.157 127.569 154.952 129.137 154.952C131.787 154.952 133.99 155.68 135.745 157.136C137.499 158.555 138.377 160.813 138.377 163.912ZM126.449 180.824C127.905 180.824 129.137 180.395 130.145 179.536C131.153 178.677 131.955 177.576 132.553 176.232C133.187 174.888 133.654 173.469 133.953 171.976C134.251 170.445 134.419 169.045 134.457 167.776C131.507 167.813 129.137 168.205 127.345 168.952C125.59 169.699 124.321 170.669 123.537 171.864C122.753 173.059 122.361 174.365 122.361 175.784C122.361 177.165 122.697 178.36 123.369 179.368C124.041 180.339 125.067 180.824 126.449 180.824ZM167.139 167.16C167.139 164.808 167.064 162.904 166.915 161.448C166.803 159.992 166.56 158.891 166.187 158.144C165.851 157.36 165.309 156.837 164.563 156.576C163.816 156.315 162.827 156.184 161.595 156.184L161.483 155.568C161.483 155.568 161.949 155.512 162.883 155.4C163.853 155.288 165.067 155.195 166.523 155.12C167.979 155.008 169.491 154.952 171.059 154.952V169.568C171.059 172.219 171.096 174.272 171.171 175.728C171.283 177.184 171.507 178.211 171.843 178.808C172.179 179.368 172.683 179.648 173.355 179.648C173.84 179.648 174.288 179.573 174.699 179.424C175.109 179.237 175.501 179.051 175.875 178.864L176.155 179.424C176.155 179.424 175.763 179.667 174.979 180.152C174.232 180.6 173.224 181.067 171.955 181.552C170.685 182.037 169.267 182.28 167.699 182.28C167.549 181.309 167.419 180.283 167.307 179.2C167.195 178.08 167.139 176.605 167.139 174.776C166.765 175.971 166.224 177.165 165.515 178.36C164.843 179.555 163.909 180.563 162.715 181.384C161.557 182.168 160.064 182.56 158.235 182.56C155.36 182.56 153.213 181.795 151.795 180.264C150.376 178.696 149.667 176.475 149.667 173.6V168.168C149.667 165.443 149.611 163.277 149.499 161.672C149.424 160.067 149.2 158.872 148.827 158.088C148.453 157.304 147.893 156.8 147.147 156.576C146.437 156.315 145.429 156.184 144.123 156.184L144.011 155.568C144.011 155.568 144.477 155.512 145.411 155.4C146.381 155.288 147.595 155.195 149.051 155.12C150.507 155.008 152.019 154.952 153.587 154.952V173.04C153.587 175.429 153.96 177.333 154.707 178.752C155.453 180.133 156.853 180.824 158.907 180.824C160.475 180.824 161.781 180.357 162.827 179.424C163.872 178.491 164.712 177.315 165.347 175.896C165.981 174.477 166.429 172.984 166.691 171.416C166.989 169.848 167.139 168.429 167.139 167.16ZM163.275 141.176C163.872 141.176 164.339 141.381 164.675 141.792C165.048 142.165 165.235 142.613 165.235 143.136C165.235 143.547 165.123 143.976 164.899 144.424C164.675 144.872 164.133 145.32 163.275 145.768L154.203 150.416L153.363 149.128L160.867 142.296C161.725 141.549 162.528 141.176 163.275 141.176ZM196.731 175.784C196.395 176.941 195.853 178.043 195.107 179.088C194.397 180.096 193.464 180.936 192.307 181.608C191.149 182.243 189.731 182.56 188.051 182.56C186.147 182.56 184.523 182.149 183.179 181.328C181.872 180.507 180.827 179.443 180.043 178.136C179.259 176.792 178.68 175.336 178.307 173.768C177.971 172.2 177.803 170.669 177.803 169.176C177.803 166.563 178.363 164.192 179.483 162.064C180.603 159.899 182.208 158.181 184.299 156.912C186.389 155.605 188.891 154.952 191.803 154.952C192.848 154.952 193.781 155.027 194.603 155.176C195.461 155.288 196.227 155.437 196.899 155.624V150.304C196.899 148.4 196.861 146.907 196.787 145.824C196.712 144.704 196.525 143.883 196.227 143.36C195.928 142.837 195.461 142.501 194.827 142.352C194.192 142.203 193.315 142.128 192.195 142.128L192.083 141.512C192.083 141.512 192.475 141.456 193.259 141.344C194.08 141.232 195.144 141.12 196.451 141.008C197.795 140.896 199.251 140.84 200.819 140.84V169.568C200.819 172.219 200.856 174.272 200.931 175.728C201.043 177.184 201.267 178.211 201.603 178.808C201.939 179.368 202.443 179.648 203.115 179.648C203.6 179.648 204.048 179.573 204.459 179.424C204.869 179.237 205.261 179.051 205.635 178.864L205.915 179.424C205.915 179.424 205.541 179.667 204.795 180.152C204.048 180.6 203.021 181.067 201.715 181.552C200.445 182.037 199.027 182.28 197.459 182.28C197.309 181.571 197.141 180.693 196.955 179.648C196.805 178.603 196.731 177.315 196.731 175.784ZM188.891 180.824C190.421 180.824 191.691 180.357 192.699 179.424C193.744 178.491 194.565 177.315 195.163 175.896C195.76 174.477 196.189 172.984 196.451 171.416C196.749 169.848 196.899 168.429 196.899 167.16V158.592C195.293 157.323 193.445 156.688 191.355 156.688C189.563 156.688 188.051 157.099 186.819 157.92C185.624 158.741 184.672 159.805 183.963 161.112C183.291 162.381 182.805 163.744 182.507 165.2C182.208 166.619 182.059 167.944 182.059 169.176C182.059 170.333 182.152 171.603 182.339 172.984C182.563 174.328 182.917 175.597 183.403 176.792C183.888 177.949 184.579 178.92 185.475 179.704C186.371 180.451 187.509 180.824 188.891 180.824ZM229.872 167.832H211.504V168.784C211.504 171.584 211.914 173.88 212.736 175.672C213.557 177.464 214.64 178.789 215.984 179.648C217.328 180.507 218.765 180.936 220.296 180.936C221.864 180.936 223.376 180.6 224.832 179.928C226.325 179.219 227.501 178.061 228.36 176.456L229.2 176.904C228.154 178.957 226.754 180.413 225 181.272C223.282 182.131 221.434 182.56 219.456 182.56C217.365 182.56 215.386 182.056 213.52 181.048C211.653 180.003 210.141 178.453 208.984 176.4C207.826 174.347 207.248 171.808 207.248 168.784C207.248 166.245 207.714 163.931 208.648 161.84C209.581 159.749 210.906 158.088 212.624 156.856C214.378 155.587 216.488 154.952 218.952 154.952C221.378 154.952 223.394 155.531 225 156.688C226.605 157.845 227.818 159.395 228.64 161.336C229.461 163.277 229.872 165.443 229.872 167.832ZM219.008 156.072C216.73 156.072 214.994 157.043 213.8 158.984C212.605 160.925 211.877 163.333 211.616 166.208H225.56C225.448 163.147 224.888 160.701 223.88 158.872C222.872 157.005 221.248 156.072 219.008 156.072ZM28.608 230.976C28.7947 229.408 29.2053 227.859 29.84 226.328C30.512 224.76 31.408 223.472 32.528 222.464C33.6853 221.456 35.104 220.952 36.784 220.952C39.472 220.952 41.5067 221.736 42.888 223.304C44.2693 224.835 44.96 227.037 44.96 229.912V238.76C44.96 241.299 45.0533 243.184 45.24 244.416C45.4267 245.648 45.856 246.451 46.528 246.824C47.2 247.16 48.264 247.328 49.72 247.328L49.832 248H36.616L36.728 247.328C37.7733 247.328 38.5947 247.235 39.192 247.048C39.7893 246.861 40.2187 246.469 40.48 245.872C40.7413 245.275 40.8907 244.379 40.928 243.184C41.0027 241.952 41.04 240.309 41.04 238.256V230.472C41.04 228.045 40.6853 226.141 39.976 224.76C39.304 223.379 38.0347 222.688 36.168 222.688C34.9733 222.688 33.9467 223.08 33.088 223.864C32.2293 224.648 31.5013 225.675 30.904 226.944C30.344 228.176 29.896 229.52 29.56 230.976C29.224 232.432 28.9813 233.851 28.832 235.232C28.6827 236.576 28.608 237.752 28.608 238.76C28.608 240.701 28.6453 242.251 28.72 243.408C28.7947 244.528 28.9813 245.368 29.28 245.928C29.5787 246.488 30.0453 246.861 30.68 247.048C31.3147 247.235 32.192 247.328 33.312 247.328L33.424 248H20.264L20.376 247.328C21.4213 247.328 22.2427 247.235 22.84 247.048C23.4373 246.861 23.8667 246.469 24.128 245.872C24.3893 245.275 24.5387 244.379 24.576 243.184C24.6507 241.952 24.688 240.309 24.688 238.256V230.472C24.688 228.045 24.3333 226.141 23.624 224.76C22.952 223.379 21.6827 222.688 19.816 222.688C18.6213 222.688 17.5947 223.08 16.736 223.864C15.8773 224.648 15.1493 225.675 14.552 226.944C13.992 228.176 13.544 229.52 13.208 230.976C12.872 232.432 12.6293 233.851 12.48 235.232C12.3307 236.576 12.256 237.752 12.256 238.76C12.256 240.701 12.2933 242.251 12.368 243.408C12.4427 244.528 12.6293 245.368 12.928 245.928C13.2267 246.488 13.6933 246.861 14.328 247.048C14.9627 247.235 15.84 247.328 16.96 247.328L17.072 248H3.408L3.52 247.328C4.67733 247.328 5.57333 247.235 6.208 247.048C6.88 246.861 7.36533 246.488 7.664 245.928C7.96267 245.331 8.14933 244.453 8.224 243.296C8.29867 242.139 8.336 240.589 8.336 238.648V234.168C8.336 231.443 8.28 229.277 8.168 227.672C8.09333 226.067 7.86933 224.872 7.496 224.088C7.12267 223.304 6.56267 222.8 5.816 222.576C5.10667 222.315 4.09867 222.184 2.792 222.184L2.68 221.568C2.68 221.568 3.14667 221.512 4.08 221.4C5.05067 221.288 6.264 221.195 7.72 221.12C9.176 221.008 10.688 220.952 12.256 220.952V230.976C12.4427 229.408 12.8533 227.859 13.488 226.328C14.16 224.76 15.056 223.472 16.176 222.464C17.3333 221.456 18.752 220.952 20.432 220.952C23.12 220.952 25.1547 221.736 26.536 223.304C27.9173 224.872 28.608 227.429 28.608 230.976ZM74.3953 233.832H56.0273V234.784C56.0273 237.584 56.4379 239.88 57.2593 241.672C58.0806 243.464 59.1633 244.789 60.5073 245.648C61.8513 246.507 63.2886 246.936 64.8193 246.936C66.3873 246.936 67.8993 246.6 69.3553 245.928C70.8486 245.219 72.0246 244.061 72.8833 242.456L73.7233 242.904C72.6779 244.957 71.2779 246.413 69.5233 247.272C67.8059 248.131 65.9579 248.56 63.9793 248.56C61.8886 248.56 59.9099 248.056 58.0433 247.048C56.1766 246.003 54.6646 244.453 53.5073 242.4C52.3499 240.347 51.7713 237.808 51.7713 234.784C51.7713 232.245 52.2379 229.931 53.1713 227.84C54.1046 225.749 55.4299 224.088 57.1473 222.856C58.9019 221.587 61.0113 220.952 63.4753 220.952C65.9019 220.952 67.9179 221.531 69.5233 222.688C71.1286 223.845 72.3419 225.395 73.1633 227.336C73.9846 229.277 74.3953 231.443 74.3953 233.832ZM63.5312 222.072C61.2539 222.072 59.5179 223.043 58.3233 224.984C57.1286 226.925 56.4006 229.333 56.1393 232.208H70.0833C69.9713 229.147 69.4113 226.701 68.4033 224.872C67.3953 223.005 65.7713 222.072 63.5312 222.072ZM86.4591 220.952V230.976C86.6831 229.408 87.1311 227.859 87.8031 226.328C88.5125 224.76 89.4831 223.472 90.7151 222.464C91.9845 221.456 93.5338 220.952 95.3631 220.952C98.2378 220.952 100.384 221.736 101.803 223.304C103.222 224.835 103.931 227.037 103.931 229.912V238.76C103.931 241.299 104.024 243.184 104.211 244.416C104.398 245.648 104.827 246.451 105.499 246.824C106.171 247.16 107.235 247.328 108.691 247.328L108.803 248H95.1951L95.3071 247.328C96.4645 247.328 97.3605 247.235 97.9951 247.048C98.6298 246.861 99.0778 246.469 99.3391 245.872C99.6378 245.275 99.8245 244.379 99.8991 243.184C99.9738 241.952 100.011 240.309 100.011 238.256V230.472C100.011 228.045 99.6378 226.141 98.8911 224.76C98.1445 223.379 96.7445 222.688 94.6911 222.688C93.3845 222.688 92.2458 223.08 91.2751 223.864C90.3418 224.648 89.5578 225.675 88.9231 226.944C88.3258 228.176 87.8405 229.52 87.4671 230.976C87.0938 232.432 86.8325 233.851 86.6831 235.232C86.5338 236.576 86.4591 237.752 86.4591 238.76C86.4591 240.701 86.4965 242.251 86.5711 243.408C86.6458 244.528 86.8325 245.368 87.1311 245.928C87.4298 246.488 87.8965 246.861 88.5311 247.048C89.1658 247.235 90.0431 247.328 91.1631 247.328L91.2751 248H77.6111L77.7231 247.328C78.8805 247.328 79.7765 247.235 80.4111 247.048C81.0831 246.861 81.5685 246.488 81.8671 245.928C82.1658 245.331 82.3525 244.453 82.4271 243.296C82.5018 242.139 82.5391 240.589 82.5391 238.648V234.168C82.5391 231.443 82.4831 229.277 82.3711 227.672C82.2965 226.067 82.0725 224.872 81.6991 224.088C81.3258 223.304 80.7658 222.8 80.0191 222.576C79.3098 222.315 78.3018 222.184 76.9951 222.184L76.8831 221.568C76.8831 221.568 77.3498 221.512 78.2831 221.4C79.2538 221.288 80.4671 221.195 81.9231 221.12C83.3791 221.008 84.8911 220.952 86.4591 220.952ZM118.333 214.624V221.512H125.221V222.744H118.333V244.08C118.333 244.901 118.519 245.536 118.893 245.984C119.266 246.432 119.751 246.656 120.349 246.656C121.095 246.656 121.842 246.563 122.589 246.376C123.335 246.152 124.175 245.853 125.109 245.48L125.221 246.096C124.175 246.768 123.074 247.347 121.917 247.832C120.759 248.317 119.546 248.56 118.277 248.56C117.045 248.56 116.093 248.261 115.421 247.664C114.749 247.067 114.413 245.947 114.413 244.304V222.744H111.053V221.512C112.546 221.512 113.685 221.213 114.469 220.616C115.253 219.981 115.831 219.141 116.205 218.096C116.578 217.051 116.877 215.931 117.101 214.736L118.333 214.624ZM147.431 229.912V235.568C147.431 238.219 147.469 240.272 147.543 241.728C147.655 243.184 147.879 244.211 148.215 244.808C148.551 245.368 149.055 245.648 149.727 245.648C150.213 245.648 150.661 245.573 151.071 245.424C151.482 245.237 151.874 245.051 152.247 244.864L152.527 245.424C152.527 245.424 152.154 245.667 151.407 246.152C150.661 246.6 149.634 247.067 148.327 247.552C147.058 248.037 145.639 248.28 144.071 248.28C143.922 247.571 143.791 246.525 143.679 245.144C143.567 243.763 143.511 242.307 143.511 240.776C143.101 242.008 142.541 243.221 141.831 244.416C141.159 245.611 140.245 246.6 139.087 247.384C137.93 248.168 136.437 248.56 134.607 248.56C132.405 248.56 130.613 247.944 129.231 246.712C127.85 245.48 127.159 243.763 127.159 241.56C127.159 239.768 127.701 238.2 128.783 236.856C129.866 235.475 131.602 234.411 133.991 233.664C136.381 232.88 139.554 232.488 143.511 232.488V230.472C143.511 228.867 143.362 227.448 143.063 226.216C142.802 224.947 142.261 223.957 141.439 223.248C140.655 222.539 139.498 222.184 137.967 222.184C136.922 222.184 136.101 222.389 135.503 222.8C134.906 223.173 134.421 223.64 134.047 224.2C133.711 224.76 133.413 225.339 133.151 225.936C132.89 226.496 132.573 226.981 132.199 227.392C131.863 227.765 131.378 227.952 130.743 227.952C129.474 227.952 128.839 227.317 128.839 226.048C128.839 224.965 129.287 224.051 130.183 223.304C131.079 222.557 132.237 221.979 133.655 221.568C135.111 221.157 136.623 220.952 138.191 220.952C140.842 220.952 143.045 221.68 144.799 223.136C146.554 224.555 147.431 226.813 147.431 229.912ZM135.503 246.824C136.959 246.824 138.191 246.395 139.199 245.536C140.207 244.677 141.01 243.576 141.607 242.232C142.242 240.888 142.709 239.469 143.007 237.976C143.306 236.445 143.474 235.045 143.511 233.776C140.562 233.813 138.191 234.205 136.399 234.952C134.645 235.699 133.375 236.669 132.591 237.864C131.807 239.059 131.415 240.365 131.415 241.784C131.415 243.165 131.751 244.36 132.423 245.368C133.095 246.339 134.122 246.824 135.503 246.824ZM162.193 206.784V238.256C162.193 240.309 162.231 241.952 162.305 243.184C162.38 244.379 162.567 245.275 162.865 245.872C163.201 246.469 163.687 246.861 164.321 247.048C164.956 247.235 165.833 247.328 166.953 247.328L167.065 248H153.345L153.457 247.328C154.615 247.328 155.511 247.235 156.145 247.048C156.817 246.861 157.303 246.469 157.601 245.872C157.9 245.275 158.087 244.379 158.161 243.184C158.236 241.952 158.273 240.309 158.273 238.256V216.864C158.273 214.848 158.236 213.243 158.161 212.048C158.087 210.853 157.9 209.976 157.601 209.416C157.303 208.856 156.817 208.501 156.145 208.352C155.511 208.165 154.615 208.072 153.457 208.072L153.345 207.456C153.345 207.456 153.756 207.4 154.577 207.288C155.399 207.176 156.481 207.064 157.825 206.952C159.207 206.84 160.663 206.784 162.193 206.784ZM189.878 208.296C192.305 208.296 194.284 208.875 195.814 210.032C197.382 211.189 198.166 212.981 198.166 215.408C198.166 216.789 197.756 218.171 196.934 219.552C196.15 220.896 195.161 222.221 193.966 223.528C192.809 224.835 191.633 226.123 190.438 227.392C189.281 228.624 188.292 229.8 187.47 230.92C186.686 232.04 186.294 233.104 186.294 234.112C186.294 234.821 186.481 235.512 186.854 236.184C187.228 236.856 187.844 237.547 188.702 238.256L187.694 239.32C186.238 238.051 185.193 236.837 184.558 235.68C183.961 234.523 183.662 233.403 183.662 232.32C183.662 230.976 184.017 229.725 184.726 228.568C185.436 227.411 186.313 226.291 187.358 225.208C188.441 224.125 189.505 223.043 190.55 221.96C191.633 220.877 192.529 219.757 193.238 218.6C193.948 217.405 194.302 216.117 194.302 214.736C194.302 212.981 193.91 211.712 193.126 210.928C192.342 210.144 191.241 209.752 189.822 209.752C188.553 209.752 187.545 209.995 186.798 210.48C186.089 210.928 185.529 211.488 185.118 212.16C184.745 212.832 184.409 213.504 184.11 214.176C183.849 214.848 183.532 215.427 183.158 215.912C182.785 216.36 182.244 216.584 181.534 216.584C181.086 216.584 180.694 216.397 180.358 216.024C180.022 215.651 179.854 215.165 179.854 214.568C179.854 213.635 180.302 212.683 181.198 211.712C182.132 210.741 183.345 209.939 184.838 209.304C186.369 208.632 188.049 208.296 189.878 208.296ZM187.75 242.624C188.609 242.624 189.318 242.923 189.878 243.52C190.438 244.08 190.718 244.789 190.718 245.648C190.718 246.469 190.438 247.16 189.878 247.72C189.318 248.28 188.609 248.56 187.75 248.56C186.966 248.56 186.276 248.28 185.678 247.72C185.118 247.16 184.838 246.469 184.838 245.648C184.838 244.789 185.118 244.08 185.678 243.52C186.276 242.923 186.966 242.624 187.75 242.624Z" fill="#0C130B"/>
</svg>
