<svg width="24" height="24" viewBox="0 0 24 24" fill="none" xmlns="http://www.w3.org/2000/svg">
<path d="M23.928 7.0528C23.8696 5.7752 23.6672 4.9032 23.3704 4.14C23.064 3.3512 22.6536 2.6816 21.9864 2.0144C21.3192 1.3472 20.6504 0.9368 19.8608 0.6304C19.0976 0.3336 18.2248 0.1312 16.948 0.0727997C15.668 0.0135997 15.2592 0 12 0C8.7408 0 8.332 0.0136001 7.0528 0.0720001C5.7752 0.1304 4.9032 0.332801 4.14 0.629601C3.3512 0.936001 2.6816 1.3464 2.0144 2.0136C1.3472 2.6808 0.9368 3.3496 0.6304 4.1392C0.3336 4.9024 0.1312 5.7752 0.0727997 7.052C0.0135997 8.332 0 8.7408 0 12C0 15.2592 0.0136001 15.668 0.0720001 16.9472C0.1304 18.2248 0.332801 19.0968 0.629601 19.86C0.936001 20.6488 1.3464 21.3184 2.0136 21.9856C2.6808 22.6528 3.3496 23.0632 4.1392 23.3696C4.9024 23.6664 5.7752 23.8688 7.052 23.9272C8.332 23.9864 8.7408 24 12 24C15.2592 24 15.668 23.9864 16.9472 23.928C18.2248 23.8696 19.0968 23.6672 19.86 23.3704C20.6488 23.064 21.3184 22.6536 21.9856 21.9864C22.6528 21.3192 23.0632 20.6504 23.3696 19.8608C23.6664 19.0976 23.8688 18.2248 23.9272 16.948C23.9864 15.668 24 15.2592 24 12C24 8.7408 23.9864 8.332 23.928 7.0528ZM21.768 16.8488C21.7144 18.0184 21.5192 18.6544 21.3552 19.0768C21.1376 19.6368 20.8776 20.0368 20.4576 20.4568C20.0376 20.8768 19.6376 21.1368 19.0776 21.3544C18.6544 21.5184 18.0192 21.7144 16.8496 21.7672C15.5848 21.8248 15.2048 21.8368 12.0008 21.8368C8.7968 21.8368 8.4168 21.8248 7.152 21.7672C5.9824 21.7136 5.3464 21.5184 4.924 21.3544C4.364 21.1368 3.964 20.8768 3.544 20.4568C3.124 20.0368 2.864 19.6368 2.6464 19.0768C2.4824 18.6536 2.2864 18.0184 2.2336 16.8488C2.176 15.5832 2.164 15.204 2.164 12C2.164 8.796 2.176 8.416 2.2336 7.1512C2.2872 5.9816 2.4824 5.3456 2.6464 4.9232C2.864 4.3632 3.124 3.9632 3.544 3.5432C3.964 3.1232 4.364 2.8632 4.924 2.6456C5.3472 2.4816 5.9824 2.2856 7.152 2.2328C8.4176 2.1752 8.7968 2.1632 12.0008 2.1632C15.2048 2.1632 15.5848 2.1752 16.8496 2.2328C18.0192 2.2864 18.6552 2.4816 19.0776 2.6456C19.6376 2.8632 20.0376 3.1232 20.4576 3.5432C20.8776 3.9632 21.1376 4.3632 21.3552 4.9232C21.5192 5.3464 21.7152 5.9816 21.768 7.1512C21.8256 8.4168 21.8376 8.796 21.8376 12C21.8376 15.204 21.8256 15.584 21.768 16.8488ZM12 5.8376C8.5968 5.8376 5.8376 8.5968 5.8376 12C5.8376 15.4032 8.5968 18.1624 12 18.1624C15.4032 18.1624 18.1624 15.4032 18.1624 12C18.1624 8.5968 15.4032 5.8376 12 5.8376ZM12 16C9.7912 16 8 14.2088 8 12C8 9.7912 9.7912 8 12 8C14.2088 8 16 9.7912 16 12C16 14.2088 14.2088 16 12 16ZM18.4056 4.1544C17.6104 4.1544 16.9656 4.7992 16.9656 5.5944C16.9656 6.3896 17.6104 7.0344 18.4056 7.0344C19.2008 7.0344 19.8456 6.3896 19.8456 5.5944C19.8456 4.7992 19.2008 4.1544 18.4056 4.1544Z" fill="#FAF2EF"/>
</svg>
