<svg width="38" height="38" viewBox="0 0 38 38" fill="none" xmlns="http://www.w3.org/2000/svg">
<path d="M37.886 11.1669C37.7935 9.14407 37.4731 7.7634 37.0031 6.555C36.518 5.30607 35.8682 4.24587 34.8118 3.18947C33.7554 2.13307 32.6965 1.48327 31.4463 0.998133C30.2379 0.5282 28.8559 0.207733 26.8343 0.115266C24.8077 0.0215328 24.1604 0 19 0C13.8396 0 13.1923 0.0215335 11.1669 0.114C9.14407 0.206467 7.7634 0.526934 6.555 0.996867C5.30607 1.482 4.24587 2.1318 3.18947 3.1882C2.13307 4.2446 1.48327 5.30353 0.998133 6.55373C0.5282 7.76213 0.207733 9.14407 0.115266 11.1657C0.0215328 13.1923 0 13.8396 0 19C0 24.1604 0.0215335 24.8077 0.114 26.8331C0.206467 28.8559 0.526934 30.2366 0.996867 31.445C1.482 32.6939 2.1318 33.7541 3.1882 34.8105C4.2446 35.8669 5.30353 36.5167 6.55373 37.0019C7.76213 37.4718 9.14407 37.7923 11.1657 37.8847C13.1923 37.9785 13.8396 38 19 38C24.1604 38 24.8077 37.9785 26.8331 37.886C28.8559 37.7935 30.2366 37.4731 31.445 37.0031C32.6939 36.518 33.7541 35.8682 34.8105 34.8118C35.8669 33.7554 36.5167 32.6965 37.0019 31.4463C37.4718 30.2379 37.7923 28.8559 37.8847 26.8343C37.9785 24.8077 38 24.1604 38 19C38 13.8396 37.9785 13.1923 37.886 11.1669ZM34.466 26.6773C34.3811 28.5291 34.0721 29.5361 33.8124 30.2049C33.4679 31.0916 33.0562 31.7249 32.3912 32.3899C31.7262 33.0549 31.0929 33.4666 30.2062 33.8111C29.5361 34.0708 28.5304 34.3811 26.6785 34.4647C24.6759 34.5559 24.0743 34.5749 19.0013 34.5749C13.9283 34.5749 13.3266 34.5559 11.324 34.4647C9.47213 34.3799 8.46513 34.0708 7.79633 33.8111C6.90967 33.4666 6.27633 33.0549 5.61133 32.3899C4.94633 31.7249 4.53467 31.0916 4.19013 30.2049C3.93047 29.5349 3.62013 28.5291 3.53653 26.6773C3.44533 24.6734 3.42633 24.073 3.42633 19C3.42633 13.927 3.44533 13.3253 3.53653 11.3227C3.6214 9.47087 3.93047 8.46387 4.19013 7.79507C4.53467 6.9084 4.94633 6.27507 5.61133 5.61007C6.27633 4.94507 6.90967 4.5334 7.79633 4.18887C8.4664 3.9292 9.47213 3.61887 11.324 3.53527C13.3279 3.44407 13.9283 3.42507 19.0013 3.42507C24.0743 3.42507 24.6759 3.44407 26.6785 3.53527C28.5304 3.62013 29.5374 3.9292 30.2062 4.18887C31.0929 4.5334 31.7262 4.94507 32.3912 5.61007C33.0562 6.27507 33.4679 6.9084 33.8124 7.79507C34.0721 8.46513 34.3824 9.47087 34.466 11.3227C34.5572 13.3266 34.5762 13.927 34.5762 19C34.5762 24.073 34.5572 24.6747 34.466 26.6773ZM19 9.24287C13.6116 9.24287 9.24287 13.6116 9.24287 19C9.24287 24.3884 13.6116 28.7571 19 28.7571C24.3884 28.7571 28.7571 24.3884 28.7571 19C28.7571 13.6116 24.3884 9.24287 19 9.24287ZM19 25.3333C15.5027 25.3333 12.6667 22.4973 12.6667 19C12.6667 15.5027 15.5027 12.6667 19 12.6667C22.4973 12.6667 25.3333 15.5027 25.3333 19C25.3333 22.4973 22.4973 25.3333 19 25.3333ZM29.1422 6.5778C27.8831 6.5778 26.8622 7.59873 26.8622 8.8578C26.8622 10.1169 27.8831 11.1378 29.1422 11.1378C30.4013 11.1378 31.4222 10.1169 31.4222 8.8578C31.4222 7.59873 30.4013 6.5778 29.1422 6.5778Z" fill="#FAF2EF"/>
</svg>
