<svg width="52" height="52" viewBox="0 0 52 52" fill="none" xmlns="http://www.w3.org/2000/svg">
<rect y="52" width="52" height="52" rx="26" transform="rotate(-90 0 52)" fill="#F3F7F1"/>
<path d="M35.2958 25.5242L34.0887 25.5242L15.1254 25.5242C14.9773 25.5242 14.8763 25.5693 14.7878 25.6597L14.7873 25.6602C14.6953 25.7539 14.6504 25.8592 14.6504 26.0071C14.6504 26.1547 14.695 26.2545 14.7824 26.3411L14.7829 26.3416C14.8703 26.4285 14.9729 26.4742 15.1254 26.4742L34.0887 26.4742L35.2958 26.4742L34.4423 27.3277L30.133 31.637C29.9852 31.785 29.9534 31.8967 29.9534 31.9804C29.9534 32.0642 29.9851 32.1757 30.1328 32.3236C30.2764 32.4672 30.3862 32.4976 30.4734 32.496C30.5748 32.494 30.6864 32.4559 30.819 32.3234L36.6522 26.4902C36.7299 26.4044 36.7803 26.3235 36.8116 26.2482L36.8119 26.2475C36.8423 26.1746 36.8599 26.0912 36.8599 25.9917C36.8599 25.8922 36.8423 25.8088 36.8119 25.7359L36.8116 25.7352C36.7825 25.6652 36.7333 25.5892 36.6523 25.5082L30.8188 19.6747C30.6711 19.5271 30.5597 19.4953 30.476 19.4953C30.3919 19.4953 30.2805 19.5272 30.133 19.6745C30.1329 19.6746 30.1329 19.6747 30.1328 19.6747M35.2958 25.5242L29.7792 20.7147C29.5715 20.5069 29.4652 20.2771 29.4605 20.0251C29.4557 19.7733 29.562 19.5387 29.7792 19.3212L30.1328 19.6747M35.2958 25.5242L34.4423 24.6706L30.1328 20.3611C30.0002 20.2286 29.9623 20.117 29.9604 20.0156L29.9604 20.0156C29.9588 19.9287 29.989 19.8188 30.1328 19.6747M35.2958 25.5242L30.1328 19.6747" fill="#9E704C" stroke="#505F4D"/>
</svg>
