<svg width="52" height="52" viewBox="0 0 52 52" fill="none" xmlns="http://www.w3.org/2000/svg">
<rect x="52" width="52" height="52" rx="26" transform="rotate(90 52 0)" fill="#F3F7F1"/>
<path d="M16.7042 26.4758L17.9113 26.4758L36.8746 26.4758C37.0227 26.4758 37.1237 26.4307 37.2122 26.3403L37.2127 26.3398C37.3047 26.2461 37.3496 26.1408 37.3496 25.9929C37.3496 25.8453 37.305 25.7455 37.2176 25.6589L37.2171 25.6584C37.1297 25.5715 37.0271 25.5258 36.8746 25.5258L17.9113 25.5258L16.7042 25.5258L17.5577 24.6723L21.867 20.363C22.0148 20.215 22.0466 20.1033 22.0466 20.0196C22.0466 19.9358 22.0149 19.8243 21.8672 19.6764C21.7236 19.5328 21.6138 19.5024 21.5266 19.504C21.4252 19.506 21.3136 19.5441 21.181 19.6766L15.3478 25.5098C15.2701 25.5956 15.2197 25.6765 15.1884 25.7518L15.1881 25.7525C15.1577 25.8254 15.1401 25.9088 15.1401 26.0083C15.1401 26.1078 15.1577 26.1912 15.1881 26.2641L15.1884 26.2648C15.2175 26.3348 15.2667 26.4108 15.3477 26.4918L21.1812 32.3253C21.3289 32.4729 21.4403 32.5047 21.524 32.5047C21.6081 32.5047 21.7195 32.4728 21.867 32.3255C21.8671 32.3254 21.8671 32.3253 21.8672 32.3253M16.7042 26.4758L22.2208 31.2853C22.4285 31.4931 22.5348 31.7229 22.5395 31.9749C22.5443 32.2267 22.438 32.4613 22.2208 32.6788L21.8672 32.3253M16.7042 26.4758L17.5577 27.3294L21.8672 31.6389C21.9998 31.7714 22.0377 31.883 22.0396 31.9844L22.0396 31.9844C22.0412 32.0713 22.011 32.1812 21.8672 32.3253M16.7042 26.4758L21.8672 32.3253" fill="#9E704C" stroke="#505F4D"/>
</svg>
